<?xml version="1.0" encoding="utf-8"?>
<!-- Generator: Adobe Illustrator 16.0.3, SVG Export Plug-In . SVG Version: 6.00 Build 0)  -->
<!DOCTYPE svg PUBLIC "-//W3C//DTD SVG 1.1//EN" "http://www.w3.org/Graphics/SVG/1.1/DTD/svg11.dtd">
<svg version="1.1" id="Ebene_1" xmlns="http://www.w3.org/2000/svg" xmlns:xlink="http://www.w3.org/1999/xlink" x="0px" y="0px"
	 width="512px" height="512px" viewBox="0 0 512 512" enable-background="new 0 0 512 512" xml:space="preserve">
<g>
	<g>
		<path fill-rule="evenodd" clip-rule="evenodd" fill="white" d="M460.679,230.631c0,27.324-0.358,54.654,0.145,81.969
			c0.272,14.782-6.236,25.536-17.166,34.237c-17.931,14.273-39,21.956-60.725,28.024c-30.076,8.402-60.831,12.308-91.958,14.459
			c-43.409,3.001-86.401,0.263-129.131-7.32c-23.302-4.135-46.106-10.298-67.573-20.487c-13.281-6.304-25.99-13.646-34.7-26.124
			c-4.099-5.872-6.287-12.337-6.279-19.614c0.057-55.813,0.269-111.629-0.128-167.439c-0.105-14.753,5.835-25.811,16.987-34.272
			c12.176-9.24,24.926-17.721,37.382-26.595c3.246-2.312,6.376-4.793,9.474-7.303c5.946-4.817,13.304-5.443,19.988-1.596
			c8.336,4.799,18.751,2.831,26.168-3.557c8.795-7.575,18.332-14.291,27.561-21.361c3.565-2.731,7.227-5.339,10.742-8.133
			c6.549-5.205,13.368-6.195,20.282-1.657c11.391,7.476,22.348,15.609,33.666,23.201c2.431,1.63,5.568,2.833,8.464,3.036
			c12.275,0.857,24.578,1.433,36.88,1.703c2.746,0.061,5.944-0.917,8.219-2.467c8.099-5.52,15.878-11.508,23.801-17.288
			c5.166-3.77,11.029-4.661,16.449-1.545c15.146,8.705,30.878,17.139,42.055,30.783c6.188,7.554,13.42,11.507,21.907,14.985
			c13.122,5.378,25.638,12.002,35.776,22.281c7.813,7.922,11.972,17.13,11.829,28.61
			C460.445,174.981,460.679,202.808,460.679,230.631z M84.108,267.696c0,8.973,0.155,17.258-0.076,25.532
			c-0.094,3.359,1.152,4.957,4.125,6.409c16.237,7.932,33.249,13.638,50.762,17.825c43.615,10.43,87.886,14.126,132.67,12.913
			c31.507-0.854,62.729-3.914,93.545-10.583c21.191-4.586,41.902-10.727,61.317-20.622c1.323-0.675,3.198-2.081,3.229-3.191
			c0.261-9.233,0.148-18.478,0.148-28.467c-3.777,2.154-6.708,3.953-9.749,5.54c-29.084,15.177-60.691,21.543-92.754,25.844
			c-37.723,5.06-75.627,6.161-113.583,2.771C168.984,297.672,124.851,291.171,84.108,267.696z M429.893,196.351
			c-11.75,5.122-22.584,10.63-33.943,14.656c-38.822,13.761-79.344,18.209-120.152,19.837c-33.972,1.355-67.872-0.64-101.499-6.12
			c-25.026-4.079-49.664-9.575-72.833-20.271c-5.639-2.604-11.056-5.69-17.335-8.95c0,9.785-0.111,18.734,0.133,27.674
			c0.033,1.191,1.641,2.862,2.91,3.413c9.293,4.038,18.496,8.415,28.082,11.629c37.844,12.688,77.048,17.855,116.725,19.548
			c45.384,1.935,90.473-0.88,134.947-10.716c20.517-4.537,40.569-10.566,59.355-20.2c1.502-0.77,3.398-2.645,3.449-4.065
			C430.051,213.999,429.893,205.197,429.893,196.351z M296.909,201.67c16.896-0.628,28.126-2.025,38.356-7.491
			c10.881-5.813,12.432-13.967,3.389-22.134c-7.854-7.093-16.641-13.21-25.343-19.289c-10.037-7.013-10.191-6.787-20.164,0.645
			c-0.801,0.598-1.668,1.106-2.464,1.709c-8.615,6.52-17.59,12.627-25.724,19.7c-7.53,6.548-6.68,12.015,1.573,17.745
			c1.361,0.945,2.801,1.988,4.359,2.403C281.256,197.723,291.663,200.328,296.909,201.67z M210.405,113.595
			c12.811-0.048,23.68-1.414,33.652-6.576c12.788-6.619,14.276-14.355,3.455-23.822c-9.329-8.161-20.083-14.678-30.047-22.136
			c-3.4-2.545-5.685-2.145-9.006,0.46c-10.586,8.302-21.786,15.828-32.285,24.233c-8.865,7.097-8.117,13.634,1.475,19.631
			C188.21,111.987,200.052,113.281,210.405,113.595z M388.293,165.348c3.663-0.325,8.003-0.472,12.261-1.139
			c8.755-1.37,17.289-3.519,24.462-9.157c5.691-4.473,6.591-9.228,2.449-15.17c-2.064-2.962-4.503-5.888-7.373-8.021
			c-8.926-6.632-18.212-12.777-27.204-19.324c-3.402-2.478-5.936-2.327-8.953,0.639c-2.34,2.301-5.379,3.877-8.028,5.879
			c-8.609,6.504-17.557,12.63-25.658,19.718c-7.132,6.24-6.156,12.079,1.633,17.396C362.702,163.554,375.132,164.52,388.293,165.348
			z M175.579,193.35c3.727-0.441,8.927-0.646,13.933-1.741c8.448-1.85,16.846-4.057,23.055-10.857
			c2.788-3.053,3.681-6.36,1.633-10.019c-1.366-2.439-2.737-5.166-4.838-6.852c-8.539-6.851-17.124-13.693-26.143-19.882
			c-9.227-6.329-9.457-5.991-18.609,0.664c-0.538,0.392-1.111,0.735-1.643,1.136c-9.02,6.793-18.373,13.196-26.953,20.505
			c-7.905,6.733-7.023,12.645,1.753,18.273C148.874,191.7,161.409,192.911,175.579,193.35z M166.856,121.875
			c-2.086-2.182-3.275-3.853-4.847-4.998c-9.783-7.134-19.734-14.038-29.443-21.27c-3.127-2.329-5.301-2.178-8.124,0.414
			c-2.795,2.566-6.182,4.478-9.213,6.8c-8.556,6.555-17.406,12.782-25.478,19.891c-6.321,5.567-5.551,10.94,1.069,16.093
			c1.303,1.015,2.751,1.876,4.218,2.645c10.294,5.388,21.452,6.794,32.85,6.896c1.397,0.013,3.031-0.498,4.167-1.31
			C143.513,138.851,154.89,130.553,166.856,121.875z M380.776,94.518c-1.843-1.966-3.006-3.618-4.542-4.776
			c-7.548-5.691-15.154-11.307-22.826-16.829c-3.234-2.329-6.709-6.104-10.023-6.05c-3.415,0.055-6.89,3.807-10.126,6.225
			c-9.84,7.351-19.901,14.458-29.243,22.404c-6.391,5.438-5.579,10.947,1.089,16.167c1.299,1.017,2.713,2.083,4.25,2.566
			c7.254,2.279,14.473,4.811,21.888,6.393c7.245,1.546,13.916,0.831,20.302-4.664C360.549,108.205,370.705,101.794,380.776,94.518z"
			/>
		<path fill-rule="evenodd" clip-rule="evenodd" fill="white" d="M92.058,394.221c-3.293,6.624-6.585,13.249-10.222,20.564
			c-4.054-1.829-7.868-3.55-11.901-5.369c6.667-11.852,13.087-23.266,19.77-35.146c5.485,2.304,10.938,4.594,16.624,6.981
			c-0.808,7.493-1.603,14.868-2.565,23.799c5.078-6.012,9.422-10.738,13.244-15.854c1.903-2.549,3.539-2.781,6.238-1.699
			c4.277,1.714,8.693,3.078,13.362,4.699c-4.425,12.763-8.709,25.116-13.176,37.999c-3.991-1.332-7.826-2.613-11.956-3.992
			c2.074-6.563,4.017-12.712,5.96-18.861c-0.469-0.245-0.938-0.489-1.408-0.734c-3.141,3.876-6.199,7.823-9.46,11.595
			c-1.446,1.672-3.546,4.426-4.923,4.19c-3.67-0.626-7.163-2.495-10.58-4.17c-0.517-0.253-0.441-2.13-0.313-3.217
			c0.797-6.763,1.686-13.515,2.545-20.271C92.883,394.564,92.47,394.393,92.058,394.221z"/>
		<path fill-rule="evenodd" clip-rule="evenodd" fill="white" d="M158.347,398.263c-2.32,8.355-4.805,16.258-6.554,24.319
			c-0.449,2.069,0.789,5.402,2.416,6.762c1.5,1.253,5.264,1.647,6.772,0.604c2.208-1.529,3.89-4.49,4.741-7.176
			c2.154-6.801,3.721-13.787,5.708-21.411c4.851,0.948,9.622,1.881,15.08,2.947c-2.352,9.934-4.342,19.501-6.948,28.897
			c-1.482,5.344-6.329,7.188-11.321,7.614c-10.068,0.859-19.567-1.28-28.051-6.922c-5.703-3.792-7.098-7.704-5.019-14.138
			c2.697-8.35,5.69-16.604,8.723-25.382C148.77,395.688,153.339,396.917,158.347,398.263z"/>
		<path fill-rule="evenodd" clip-rule="evenodd" fill="white" d="M184.365,445.414c2.909-13.871,5.59-26.656,8.383-39.977
			c9.188,1.223,18.458,1.946,27.496,3.805c8.949,1.84,13.64,9.944,12.664,19.896c-1.068,10.896-7.909,18.813-17.764,18.748
			C205.077,447.819,195.019,446.331,184.365,445.414z M200.09,437.771c2.801,0.24,5.096,0.574,7.395,0.603
			c4.181,0.051,7.453-1.716,9.228-5.583c1.941-4.229,3.19-9.2-0.026-12.712c-2.185-2.386-6.533-3.134-10.059-3.687
			c-0.793-0.124-2.657,3.489-3.218,5.599C202.093,426.938,201.265,432.014,200.09,437.771z"/>
		<path fill-rule="evenodd" clip-rule="evenodd" fill="white" d="M368.624,416.667c1.463,6.239,2.926,12.478,4.504,19.206
			c-5.374,1.333-10.448,2.592-15.953,3.957c-2.662-13.229-5.24-26.047-7.933-39.428c4.609-1.207,9.184-2.405,14.434-3.781
			c1.412,5.58,2.767,10.933,4.12,16.285c0.378,0.086,0.756,0.172,1.133,0.257c2.209-5.227,4.749-10.345,6.515-15.718
			c1.25-3.804,3.426-5.674,7.161-6.505c2.99-0.665,5.871-1.818,9.861-3.095c-2.812,6.726-5.034,12.571-7.698,18.208
			c-1.55,3.278-1.374,5.376,1.942,7.341c4.429,2.624,8.624,5.645,12.886,8.547c1.434,0.976,2.761,2.107,5.371,4.119
			c-6.186,1.994-10.94,3.711-15.816,4.956c-1.053,0.27-2.706-0.949-3.797-1.835c-5.27-4.278-10.442-8.677-15.649-13.033
			C369.344,416.321,368.983,416.494,368.624,416.667z"/>
		<path fill-rule="evenodd" clip-rule="evenodd" fill="white" d="M432.069,388.142c1.104,2.918,2.079,5.498,3.241,8.57
			c-5.454,2.415-10.694,4.735-16.204,7.176c0.691,2.008,1.266,3.677,2.075,6.029c6.924-2.902,13.556-5.682,20.566-8.62
			c1.115,2.83,2.131,5.408,3.479,8.829c-12.202,4.994-24.245,9.923-36.412,14.903c-3.889-13.262-7.572-25.821-11.378-38.799
			c10.401-4.323,21.069-8.757,32.267-13.41c1.132,2.652,2.264,5.305,3.576,8.379c-6.631,2.914-12.932,5.683-19.464,8.553
			c0.635,1.795,1.116,3.155,1.815,5.135C421.018,392.677,426.173,390.562,432.069,388.142z"/>
		<path fill-rule="evenodd" clip-rule="evenodd" fill="white" d="M296.188,449.25c6.101-14.029,11.865-27.414,17.81-40.718
			c0.48-1.074,2.106-2.043,3.358-2.304c12.762-2.663,12.743-2.602,19.592,8.438c2.717,4.379,5.554,8.685,8.399,12.979
			c2.728,4.116,5.539,8.178,8.686,12.811c-4.611,0.958-8.642,1.66-12.598,2.66c-3.297,0.834-3.713-1.818-5.054-3.579
			c-1.521-1.996-3.331-5.376-4.989-5.361c-4.887,0.046-10.06,0.773-14.502,2.677c-1.99,0.852-2.354,5.226-3.76,7.838
			c-0.689,1.281-1.95,2.923-3.17,3.132C305.57,448.576,301.087,448.79,296.188,449.25z M328.985,424.739
			c-1.936-3.439-3.462-6.149-5.41-9.611c-1.481,4.073-2.591,7.124-3.994,10.984C322.826,425.639,325.34,425.271,328.985,424.739z"/>
		<path fill-rule="evenodd" clip-rule="evenodd" fill="white" d="M291.999,409.374c0.331,2.745,0.646,5.356,1.048,8.691
			c-2.928,0-5.499-0.063-8.065,0.014c-5.692,0.171-10.988,1.377-14.356,6.555c-5.075,7.803-0.492,16.912,8.858,17.199
			c4.428,0.136,8.887-0.728,13.332-1.139c0.486,8.288-0.422,9.699-8.317,10.223c-5.091,0.337-10.363,0.416-15.337-0.528
			c-7.7-1.463-13.646-5.813-14.962-14.115c-1.402-8.85,0.978-16.545,8.738-21.886C269.894,409.601,279.166,407.965,291.999,409.374z
			"/>
		<path fill-rule="evenodd" clip-rule="evenodd" fill="white" d="M404.474,425.288c-0.212,0.33-0.377,0.777-0.518,0.77
			c-0.396-0.021-0.805-0.191-1.15-0.399c-0.057-0.034,0.176-0.552,0.274-0.846C403.531,424.967,403.982,425.121,404.474,425.288z"/>
	</g>
</g>
</svg>
